<?xml version="1.0" standalone="no"?>
<!DOCTYPE svg PUBLIC "-//W3C//DTD SVG 20010904//EN"
 "http://www.w3.org/TR/2001/REC-SVG-20010904/DTD/svg10.dtd">
<svg version="1.0" xmlns="http://www.w3.org/2000/svg"
 width="753.000000pt" height="753.000000pt" viewBox="0 0 753.000000 753.000000"
 preserveAspectRatio="xMidYMid meet">
<metadata>
Created by potrace 1.11, written by Peter Selinger 2001-2013
</metadata>
<g transform="translate(0.000000,753.000000) scale(0.100000,-0.100000)"
fill="#000000" stroke="none">
<path d="M5400 4823 c-14 -2 -68 -11 -120 -19 -52 -9 -108 -18 -125 -21 -16
-2 -41 -6 -55 -9 -68 -12 -102 -15 -185 -19 -49 -2 -93 -4 -97 -4 -5 -1 -8 -5
-8 -11 0 -6 36 -9 88 -9 96 2 137 -4 191 -27 39 -17 116 -20 569 -25 138 -1
252 -5 252 -8 0 -4 -44 -7 -97 -7 -54 -1 -283 -4 -509 -8 -373 -6 -417 -8
-485 -27 -44 -12 -114 -22 -173 -25 -54 -2 -101 -6 -104 -9 -13 -13 14 -18
105 -19 63 -1 115 -8 146 -19 66 -23 118 -26 652 -32 l460 -5 65 126 c36 69
66 129 68 134 4 10 -30 18 -138 35 -77 12 -433 18 -500 8z m550 -147 c0 -3 -4
-8 -10 -11 -5 -3 -10 -1 -10 4 0 6 5 11 10 11 6 0 10 -2 10 -4z"/>
<path d="M6865 4820 c-119 -18 -140 -22 -218 -36 -106 -19 -144 -24 -245 -28
-122 -4 -131 -25 -11 -24 71 1 113 -5 169 -22 81 -24 110 -26 627 -31 276 -4
344 -12 120 -15 -878 -12 -922 -14 -998 -35 -45 -13 -113 -22 -173 -25 -91 -3
-116 -7 -105 -18 2 -3 49 -6 104 -7 70 -2 113 -8 144 -21 57 -24 111 -27 656
-33 l461 -5 32 65 c17 36 32 66 31 68 0 1 16 29 35 61 20 33 36 63 36 67 0 9
-20 15 -80 25 -25 4 -56 9 -70 12 -44 8 -463 10 -515 2z"/>
<path d="M1200 4798 c-36 -3 -93 -13 -126 -22 -34 -9 -100 -16 -147 -16 -47 0
-89 -4 -92 -10 -4 -6 16 -10 52 -11 99 -1 146 -7 208 -29 57 -20 85 -21 588
-26 290 -3 527 -3 527 0 0 3 -21 19 -46 37 -51 35 -125 63 -194 75 -57 9 -682
11 -770 2z"/>
<path d="M3045 4798 c-27 -4 -68 -13 -90 -21 -22 -8 -85 -15 -140 -16 -55 -1
-104 -6 -110 -12 -5 -5 4 -9 25 -10 114 -2 171 -9 220 -28 46 -18 84 -22 240
-27 102 -3 216 -7 254 -8 l68 -4 -6 57 c-3 31 -5 61 -6 66 0 12 -377 14 -455
3z"/>
<path d="M4095 4802 c-11 -1 -65 -11 -120 -22 -55 -11 -139 -21 -187 -22 -49
-2 -88 -6 -88 -10 0 -10 -2 -9 95 -13 47 -1 108 -11 148 -23 69 -22 142 -28
371 -34 l120 -3 27 47 c51 87 60 82 -156 83 -104 0 -199 -1 -210 -3z"/>
<path d="M1406 4653 c-1 -1 -67 -3 -146 -4 -107 -1 -166 -7 -225 -21 -44 -11
-123 -21 -175 -23 -118 -4 -118 -4 -103 -13 7 -5 53 -9 103 -11 50 -1 105 -8
124 -16 71 -30 133 -34 611 -40 269 -4 492 -8 494 -11 2 -2 -74 -4 -170 -5
-382 -1 -827 -9 -874 -14 -27 -4 -81 -15 -120 -26 -44 -12 -101 -19 -157 -19
-48 0 -90 -4 -93 -10 -4 -6 23 -10 72 -11 109 -1 121 -3 184 -27 50 -18 79
-21 280 -22 123 -1 432 -3 687 -6 l462 -5 -6 43 c-8 54 -62 173 -99 216 l-28
33 -409 -3 c-225 -2 -411 -4 -412 -5z"/>
<path d="M3167 4653 c-1 -1 -47 -3 -102 -4 -59 -1 -128 -10 -169 -21 -58 -16
-126 -23 -258 -27 -10 -1 -18 -5 -18 -11 0 -6 36 -10 88 -10 58 0 108 -7 149
-20 34 -10 95 -21 135 -24 137 -10 540 -17 535 -9 -3 5 -6 31 -8 58 -4 81 8
77 -181 73 -93 -2 -170 -4 -171 -5z"/>
<path d="M4187 4654 c-1 -1 -58 -4 -127 -8 -84 -4 -146 -12 -188 -26 -46 -14
-91 -20 -163 -20 -59 0 -99 -4 -99 -10 0 -6 37 -10 88 -11 106 -2 92 0 177
-27 68 -21 159 -30 344 -31 129 -2 73 -9 -109 -15 -195 -7 -226 -10 -320 -36
-38 -10 -106 -18 -162 -19 l-97 -2 -3 28 -3 28 -315 -3 c-286 -2 -322 -4 -390
-24 -65 -18 -124 -25 -252 -27 -16 -1 -28 -5 -28 -10 0 -5 37 -10 83 -10 94
-1 120 -5 170 -26 47 -19 94 -23 402 -31 143 -3 271 -7 285 -8 41 -3 61 12 56
40 l-5 26 102 -5 c60 -4 127 -14 162 -25 49 -16 103 -22 270 -27 l210 -7 23
43 c13 24 49 90 79 147 l55 103 -122 -3 c-67 -2 -122 -4 -123 -4z"/>
<path d="M5145 4503 c-11 -1 -117 -4 -235 -7 -177 -3 -228 -8 -289 -24 -48
-14 -105 -21 -159 -21 -47 0 -90 -5 -95 -10 -12 -12 -15 -11 108 -13 43 -1 95
-10 137 -24 70 -24 145 -31 375 -36 197 -4 107 -17 -142 -20 -206 -2 -253 -6
-332 -25 -78 -18 -185 -28 -256 -24 -16 1 -16 3 -2 30 l15 29 -53 -3 c-28 -2
-133 -6 -233 -9 -134 -5 -200 -11 -255 -26 -41 -11 -100 -20 -131 -20 -54 0
-57 1 -60 27 -3 27 -5 27 -63 26 -307 -5 -668 -15 -682 -18 -10 -1 -43 -10
-73 -19 -31 -9 -102 -18 -159 -20 -96 -4 -150 -15 -85 -17 16 -1 61 -2 99 -4
40 -1 97 -11 134 -24 67 -23 102 -25 613 -33 193 -3 243 -11 90 -14 -48 -1
-223 -5 -389 -8 -278 -5 -308 -8 -375 -29 -52 -16 -102 -24 -173 -26 -93 -2
-114 -5 -104 -15 2 -2 51 -6 109 -9 77 -3 118 -10 153 -25 63 -28 68 -28 729
-48 l206 -6 -5 40 -5 40 58 -20 c33 -11 93 -22 134 -23 41 -2 140 -6 221 -10
l145 -6 16 34 16 34 87 -3 c53 -3 108 -12 143 -25 69 -24 80 -25 353 -34 l216
-7 70 72 c38 39 67 72 64 74 -3 1 -33 2 -66 1 -33 -1 -166 -5 -297 -9 -192 -5
-250 -11 -310 -27 -72 -20 -248 -36 -248 -23 0 4 17 36 37 70 l37 64 90 -4
c52 -2 123 -13 166 -25 60 -18 112 -23 260 -27 102 -3 223 -6 270 -8 80 -2 88
0 135 29 133 83 264 121 440 128 45 2 162 -12 189 -23 22 -8 26 -4 47 36 l24
45 100 -4 c55 -3 114 -10 130 -17 70 -29 144 -36 443 -44 68 -2 125 -6 128 -9
3 -2 -77 -5 -178 -6 -365 -4 -407 -7 -498 -34 -25 -7 -72 -15 -105 -16 -130
-6 -145 -7 -151 -14 -9 -9 -8 -9 91 -11 44 -2 120 -13 168 -25 89 -23 148 -27
410 -32 75 -2 137 -6 137 -9 0 -3 -19 -6 -42 -7 -24 0 -149 -3 -278 -7 -194
-5 -248 -10 -310 -28 -41 -11 -111 -22 -155 -24 -44 -1 -89 -3 -99 -3 -11 -1
-16 -4 -12 -8 3 -4 47 -8 97 -10 60 -3 107 -11 142 -24 57 -23 75 -24 364 -34
l203 -7 69 74 c175 186 463 276 729 227 35 -6 64 -10 66 -8 1 2 22 39 45 83
l43 78 -522 -7 c-666 -9 -660 -8 -755 -33 -50 -13 -110 -21 -162 -21 l-83 0
16 30 15 31 -368 -4 c-202 -1 -377 -4 -388 -5z m63 -148 c2 -2 -19 -4 -47 -3
-28 0 -51 3 -51 8 0 7 90 3 98 -5z m1497 5 c3 -5 1 -10 -4 -10 -6 0 -11 5 -11
10 0 6 2 10 4 10 3 0 8 -4 11 -10z m40 0 c-3 -5 -12 -10 -18 -10 -7 0 -6 4 3
10 19 12 23 12 15 0z m-1468 -6 c-3 -3 -12 -4 -19 -1 -8 3 -5 6 6 6 11 1 17
-2 13 -5z m-1578 -103 c35 -18 123 -31 255 -36 149 -6 195 -15 80 -16 -175 -1
-315 -12 -387 -30 -43 -11 -81 -17 -86 -15 -12 8 -13 109 -1 116 12 8 114 -6
139 -19z m2871 -37 c0 -8 -19 -13 -24 -6 -3 5 1 9 9 9 8 0 15 -2 15 -3z"/>
<path d="M1297 4364 c-1 -1 -56 -5 -122 -9 -251 -14 -265 -15 -333 -39 -23 -8
-84 -16 -137 -17 -52 -2 -101 -6 -108 -11 -14 -9 -15 -9 93 -13 47 -2 107 -11
134 -20 79 -27 99 -30 269 -36 120 -5 102 -19 -25 -20 -171 -2 -208 -5 -283
-28 -60 -18 -113 -24 -252 -30 -13 -1 -23 -5 -23 -10 0 -5 42 -9 93 -10 64 -1
110 -8 143 -20 60 -23 101 -28 279 -37 77 -3 142 -8 144 -10 2 -2 -29 -4 -70
-5 -41 0 -101 -2 -134 -4 -33 -3 -94 -6 -135 -9 -41 -3 -102 -14 -135 -26 -39
-14 -95 -23 -160 -26 -93 -5 -115 -8 -104 -18 2 -2 47 -6 99 -9 62 -3 114 -12
150 -26 61 -24 105 -29 263 -35 60 -2 111 -7 114 -10 4 -3 -36 -6 -88 -7 -176
-2 -274 -9 -334 -25 -105 -28 -118 -30 -202 -29 -51 0 -83 -3 -83 -10 0 -6 39
-11 100 -13 71 -1 114 -8 150 -22 52 -21 123 -28 278 -29 111 -1 124 -15 14
-18 -42 -1 -119 -2 -171 -3 -61 -1 -122 -10 -176 -25 -53 -14 -115 -23 -176
-24 -121 -3 -144 -21 -29 -22 47 -1 88 -1 92 0 4 0 35 -8 70 -19 82 -24 115
-30 223 -35 50 -2 133 -7 185 -10 l96 -6 17 33 c9 18 33 62 52 98 20 36 49 88
63 115 15 28 33 56 39 63 7 7 13 18 13 24 0 10 126 266 140 283 4 6 26 45 48
87 l40 78 -60 -3 c-33 -1 -60 -3 -61 -3z m-63 -155 c3 -3 -6 -5 -19 -5 -14 0
-25 4 -25 8 0 8 36 6 44 -3z"/>
<path d="M2047 4353 c-1 -1 -42 -3 -92 -4 -55 -2 -120 -12 -167 -25 -48 -14
-112 -24 -168 -25 -50 -2 -94 -7 -96 -11 -4 -6 116 -14 148 -9 3 0 43 -11 89
-24 74 -23 106 -25 339 -31 l257 -7 2 73 2 72 -156 -4 c-86 -1 -157 -4 -158
-5z"/>
<path d="M2187 4203 c-1 -1 -67 -3 -147 -4 -131 -3 -240 -18 -302 -44 -14 -6
-49 -8 -205 -14 -13 -1 -23 -5 -23 -10 0 -5 42 -8 93 -8 67 0 111 -6 162 -22
69 -22 129 -27 383 -32 57 -1 105 -6 108 -10 2 -4 -4 -7 -13 -7 -10 0 -108 -3
-218 -7 -158 -6 -216 -12 -280 -30 -51 -14 -115 -23 -170 -24 -126 -3 -129
-15 -5 -22 58 -4 138 -16 178 -27 59 -17 112 -22 296 -27 l223 -6 12 29 12 28
92 -3 c51 -2 117 -11 147 -19 30 -9 62 -17 70 -19 18 -3 385 -18 415 -17 18 1
40 21 48 46 2 7 29 1 73 -16 63 -25 85 -27 244 -32 96 -2 219 -5 273 -5 53 -1
97 -5 97 -9 0 -4 -109 -9 -242 -11 -204 -2 -261 -6 -358 -25 -115 -23 -162
-24 -141 -3 6 6 11 17 11 24 0 10 -37 12 -177 8 -248 -8 -295 -12 -371 -34
-37 -11 -100 -20 -142 -21 -109 -2 -103 -3 -86 22 28 39 59 37 -349 23 -138
-4 -198 -10 -255 -26 -75 -22 -117 -27 -222 -28 -32 -1 -58 -5 -58 -11 0 -6
36 -10 88 -10 50 0 108 -7 137 -16 87 -26 138 -33 284 -35 77 -1 141 -5 141
-9 0 -3 -26 -6 -57 -7 -107 0 -418 -13 -442 -18 -13 -2 -49 -12 -80 -21 -31
-9 -96 -18 -146 -20 -49 -1 -96 -3 -102 -3 -7 -1 -13 -4 -13 -9 0 -4 42 -9 94
-10 63 -2 116 -9 158 -23 69 -23 122 -27 332 -28 77 -1 137 -3 135 -6 -5 -5
-323 -12 -909 -20 -442 -6 -467 -8 -533 -31 -23 -8 -89 -18 -147 -20 -132 -7
-158 -24 -36 -24 58 0 116 -7 169 -21 90 -24 141 -27 604 -30 156 -1 283 -5
283 -9 0 -4 -93 -8 -207 -10 -634 -7 -661 -9 -719 -30 -13 -5 -24 -7 -24 -5 0
2 -12 0 -27 -7 -16 -6 -66 -12 -113 -14 -47 -1 -95 -3 -108 -3 -13 -1 -21 -5
-18 -9 3 -5 42 -9 88 -10 95 -2 108 -4 174 -27 53 -19 140 -22 612 -25 138 -1
252 -6 252 -10 0 -5 -87 -9 -192 -10 -550 -4 -650 -8 -745 -34 -50 -13 -117
-24 -149 -24 -113 -1 -124 -2 -124 -12 0 -6 35 -10 86 -10 61 0 108 -7 158
-22 69 -21 86 -22 516 -22 542 0 606 5 760 62 179 65 434 255 567 421 18 22
25 24 117 22 70 -2 113 -8 147 -21 50 -20 99 -25 357 -35 l142 -6 18 31 17 31
95 -2 c71 -1 110 -7 155 -24 61 -23 203 -33 479 -35 159 0 104 -11 -85 -15
-253 -7 -317 -13 -389 -35 -45 -14 -94 -20 -157 -20 -50 0 -95 -4 -98 -10 -4
-6 14 -10 47 -11 99 -1 143 -6 213 -27 70 -22 187 -29 494 -31 57 -1 102 -3
99 -6 -3 -3 -72 -8 -154 -10 -274 -9 -339 -14 -414 -34 -44 -12 -117 -21 -174
-23 -54 -1 -100 -6 -102 -10 -6 -9 -1 -9 111 -13 47 -1 107 -11 145 -23 64
-21 146 -29 358 -34 57 -1 105 -6 108 -10 3 -4 -37 -8 -88 -9 -181 -2 -263 -9
-337 -29 -68 -19 -140 -28 -243 -29 -21 -1 -38 -5 -38 -9 0 -5 44 -9 97 -11
54 -1 102 -6 108 -10 33 -24 112 -34 298 -36 l197 -2 69 131 c38 72 71 138 73
145 2 8 9 21 16 30 12 14 95 163 221 395 23 43 47 86 53 95 8 14 24 15 111 10
56 -3 124 -13 150 -23 61 -22 76 -23 287 -31 178 -7 235 -14 119 -16 -248 -3
-380 -13 -439 -34 -54 -19 -81 -22 -189 -24 -114 -1 -93 -18 29 -24 58 -3 119
-13 155 -25 57 -19 188 -29 429 -31 124 -2 42 -10 -149 -16 -155 -5 -218 -11
-280 -27 -74 -19 -129 -25 -243 -27 -81 -2 -32 -21 52 -21 57 0 101 -6 140
-20 73 -25 118 -29 400 -35 247 -5 317 -15 115 -16 -287 -1 -382 -8 -455 -33
-52 -17 -95 -24 -169 -25 -55 -1 -101 -4 -104 -7 -12 -11 16 -17 101 -19 67
-2 108 -9 148 -25 50 -20 78 -22 290 -26 129 -3 288 -6 352 -8 65 -1 120 -5
123 -8 4 -3 -58 -7 -137 -8 -373 -4 -471 -10 -547 -31 -44 -13 -113 -23 -166
-24 -111 -4 -110 -4 -102 -11 4 -4 46 -8 94 -10 49 -2 118 -13 156 -24 72 -22
153 -26 570 -31 114 -1 207 -6 207 -10 0 -5 -46 -9 -102 -10 -286 -1 -407 -9
-470 -30 -39 -13 -102 -22 -168 -26 -58 -3 -109 -8 -113 -13 -5 -4 34 -8 85
-9 60 -1 140 -13 227 -32 73 -16 159 -33 190 -36 111 -14 338 -7 401 12 18 6
84 121 76 134 -3 5 0 11 7 14 8 3 29 36 48 74 19 37 37 70 40 73 12 11 90 162
86 166 -2 3 -35 0 -73 -6 -60 -10 -147 -12 -301 -6 -22 0 -39 4 -36 9 2 4 0 7
-5 7 -22 0 -101 63 -118 95 -10 19 -22 35 -26 35 -4 0 -6 33 -4 73 3 72 22
124 67 189 11 14 19 29 19 33 0 4 -116 5 -257 1 -234 -5 -266 -8 -348 -31 -62
-17 -115 -25 -173 -25 -79 0 -82 1 -72 19 5 11 10 24 10 30 0 15 -855 3 -930
-13 -88 -19 -83 -20 -71 3 11 20 10 20 -116 15 -224 -8 -337 -13 -358 -18 -11
-2 -47 -11 -80 -19 -33 -7 -102 -15 -153 -16 -103 -2 -98 -6 -75 57 5 10 -15
17 -39 13 -5 0 -8 3 -8 8 0 6 12 9 27 8 25 -2 28 2 39 48 23 97 25 94 -67 92
-44 -1 -81 -3 -82 -4z m1608 -312 c-9 -8 -36 -10 -30 -2 2 4 11 8 20 8 8 0 13
-3 10 -6z m-653 -105 c79 -27 184 -34 532 -35 209 -1 117 -12 -146 -18 -212
-4 -270 -8 -358 -27 -58 -13 -141 -24 -183 -25 l-78 -2 25 38 c14 21 30 52 36
68 10 28 14 31 53 29 24 -1 77 -13 119 -28z m-693 0 c59 -22 168 -34 310 -35
108 -1 79 -13 -41 -17 -189 -7 -273 -13 -308 -24 -62 -19 -73 -21 -173 -26
-80 -4 -97 -3 -90 8 4 7 24 37 42 66 l34 53 91 -5 c50 -2 111 -11 135 -20z
m-522 -192 c-3 -3 -12 -4 -19 -1 -8 3 -5 6 6 6 11 1 17 -2 13 -5z m-394 -154
c-7 -8 -203 -6 -203 2 0 3 47 6 104 5 57 -1 102 -4 99 -7z m37 0 c0 -5 -5 -10
-11 -10 -5 0 -7 5 -4 10 3 6 8 10 11 10 2 0 4 -4 4 -10z m3524 -2 c-3 -4 -9
-8 -15 -8 -5 0 -9 4 -9 8 0 5 7 9 15 9 8 0 12 -4 9 -9z m70 4 c3 -5 -1 -9 -9
-9 -8 0 -12 4 -9 9 3 4 7 8 9 8 2 0 6 -4 9 -8z m-3904 -152 c0 -5 -4 -10 -10
-10 -5 0 -10 5 -10 10 0 6 5 10 10 10 6 0 10 -4 10 -10z m70 1 c0 -3 -13 -7
-30 -7 -16 -1 -30 2 -30 6 0 5 14 8 30 8 17 -1 30 -4 30 -7z m64 0 c-8 -9 -43
-11 -48 -3 -2 4 9 7 25 7 15 1 26 -1 23 -4z m2286 -1 c-18 -12 -30 -13 -30 -2
0 4 10 9 22 9 18 2 20 0 8 -7z m1510 0 c0 -4 -16 -7 -35 -7 -19 0 -35 3 -35 7
0 3 16 6 35 6 19 0 35 -3 35 -6z"/>
<path d="M5960 4029 c-41 -3 -110 -16 -153 -28 -42 -12 -85 -21 -95 -20 -47 4
-152 -2 -152 -10 0 -5 40 -9 90 -10 59 -1 110 -9 152 -22 34 -12 89 -23 123
-25 88 -6 223 -13 279 -13 104 -2 32 -11 -125 -16 -195 -6 -235 -11 -314 -34
-35 -11 -97 -19 -150 -20 -95 -2 -147 -21 -59 -21 106 -1 164 -9 220 -28 33
-10 84 -20 114 -22 141 -6 211 -8 289 -9 145 -2 84 -10 -129 -16 -161 -5 -221
-11 -280 -27 -69 -19 -128 -26 -237 -27 -24 -1 -43 -5 -43 -10 0 -5 42 -9 94
-10 65 -1 109 -8 145 -22 65 -24 102 -27 390 -34 129 -2 236 -7 239 -10 3 -3
-55 -5 -129 -6 -288 -2 -359 -7 -432 -29 -96 -29 -99 -30 -199 -31 -49 0 -88
-5 -88 -10 0 -11 -6 -10 105 -14 63 -3 108 -10 145 -25 55 -22 176 -28 677
-34 162 -2 100 -16 -74 -17 -370 -2 -436 -6 -517 -29 -49 -13 -113 -22 -173
-24 -54 -2 -98 -7 -100 -12 -2 -5 41 -10 94 -11 66 -2 115 -9 156 -23 63 -22
123 -25 619 -32 115 -2 208 -6 208 -10 0 -5 -69 -8 -152 -9 -301 -2 -399 -8
-473 -30 -43 -13 -109 -23 -170 -26 -130 -6 -150 -23 -27 -23 64 0 130 -9 224
-29 73 -17 160 -33 193 -38 91 -11 303 -8 367 6 l57 12 39 77 c22 42 76 143
120 224 45 80 82 150 82 153 0 4 -15 5 -32 1 -91 -18 -217 -23 -312 -13 -90
10 -161 55 -199 126 -43 78 -35 151 28 255 19 32 35 60 35 63 0 6 -374 0 -470
-8z m327 -135 c-3 -3 -12 -4 -19 -1 -8 3 -5 6 6 6 11 1 17 -2 13 -5z m110
-300 c-3 -3 -12 -4 -19 -1 -8 3 -5 6 6 6 11 1 17 -2 13 -5z m158 -154 c3 -5 1
-10 -4 -10 -6 0 -11 5 -11 10 0 6 2 10 4 10 3 0 8 -4 11 -10z m30 0 c3 -5 1
-10 -4 -10 -6 0 -11 5 -11 10 0 6 2 10 4 10 3 0 8 -4 11 -10z m40 -8 c-3 -3
-11 0 -18 7 -9 10 -8 11 6 5 10 -3 15 -9 12 -12z m79 -143 c3 -3 -5 -5 -19 -5
-13 0 -22 3 -19 7 4 8 30 6 38 -2z"/>
<path d="M2475 3579 c-60 -4 -132 -14 -160 -24 -27 -9 -97 -18 -155 -21 -119
-6 -153 -20 -58 -23 92 -3 145 -10 218 -32 62 -18 183 -27 379 -28 131 -1 70
-11 -105 -16 -242 -8 -291 -12 -369 -35 -45 -13 -100 -20 -155 -20 -47 0 -92
-5 -100 -10 -12 -7 -8 -10 15 -11 137 -3 185 -9 213 -23 18 -9 32 -14 32 -11
0 3 9 1 19 -5 20 -10 118 -17 284 -21 105 -2 117 -19 15 -20 -98 -1 -276 -9
-313 -14 -16 -2 -57 -11 -90 -21 -62 -17 -95 -21 -203 -23 -95 -2 -66 -17 37
-19 51 -1 108 -9 133 -18 23 -8 52 -18 63 -21 30 -7 442 -11 453 -4 6 3 31 47
57 96 86 164 100 190 105 195 8 8 70 127 70 134 0 8 -210 5 -385 -5z m185
-291 c0 -4 -7 -8 -15 -8 -8 0 -15 4 -15 8 0 5 7 9 15 9 8 0 15 -4 15 -9z m25
2 c3 -5 1 -10 -4 -10 -6 0 -11 5 -11 10 0 6 2 10 4 10 3 0 8 -4 11 -10z"/>
<path d="M56 2943 c-5 -16 -20 -81 -32 -138 -2 -11 -7 -37 -11 -59 l-6 -38 81
3 c69 4 84 8 107 29 69 64 68 177 -1 206 -50 21 -131 19 -138 -3z m127 -42
c13 -13 11 -67 -4 -103 -13 -31 -43 -48 -86 -48 -28 0 -28 -2 -1 124 l10 48
36 -6 c19 -3 40 -10 45 -15z"/>
<path d="M306 2938 c-3 -13 -14 -65 -25 -116 -26 -116 -26 -112 3 -112 28 0
27 -3 55 132 26 121 26 118 -4 118 -17 0 -26 -6 -29 -22z"/>
<path d="M473 2943 c-6 -16 -64 -118 -115 -200 l-20 -33 30 0 c23 0 32 6 41
28 11 27 22 29 109 23 6 -1 12 -12 12 -26 0 -20 5 -25 26 -25 26 0 26 1 20 48
-6 41 -13 82 -32 180 -3 17 -11 22 -35 22 -19 0 -32 -6 -36 -17z m39 -98 c2
-19 2 -35 -2 -36 -61 -9 -67 -3 -39 45 25 42 35 40 41 -9z"/>
<path d="M665 2941 c-3 -11 -8 -30 -10 -43 -3 -13 -7 -34 -10 -48 -31 -145
-31 -140 -3 -140 23 0 26 6 37 63 21 108 21 108 55 21 28 -69 35 -79 59 -82
15 -2 27 -1 27 3 0 4 28 142 46 223 3 18 0 22 -19 22 -22 0 -26 -7 -42 -81 -9
-44 -18 -79 -20 -77 -2 2 -18 38 -35 81 -27 64 -37 77 -56 77 -14 0 -25 -8
-29 -19z"/>
<path d="M1001 2857 c-12 -57 -24 -113 -28 -125 -4 -18 -1 -22 20 -22 25 0 29
7 43 75 3 11 8 36 12 55 l8 35 33 -83 c31 -76 36 -83 59 -80 24 3 27 10 48
108 29 136 29 142 2 138 -17 -2 -24 -13 -30 -43 -5 -22 -13 -58 -19 -80 l-11
-40 -32 80 c-27 68 -36 80 -58 83 -24 3 -26 0 -47 -101z"/>
<path d="M1277 2953 c-9 -16 -32 -149 -30 -177 1 -35 29 -64 63 -66 95 -7 121
17 149 141 26 112 26 109 -3 109 -28 0 -30 -5 -52 -125 -10 -55 -27 -80 -59
-83 -45 -6 -56 17 -40 86 27 122 27 122 0 122 -13 0 -26 -3 -28 -7z"/>
<path d="M1546 2939 c-48 -38 -30 -86 45 -124 44 -23 48 -28 39 -45 -15 -28
-76 -28 -85 0 -4 13 -15 20 -31 20 -32 0 -32 -29 0 -59 47 -44 158 -23 172 33
10 41 -5 63 -62 91 -63 31 -70 58 -17 63 23 2 34 -2 42 -17 6 -11 19 -18 28
-16 10 2 21 4 26 4 13 1 -21 58 -38 65 -35 13 -93 6 -119 -15z"/>
<path d="M1747 2953 c-2 -4 -3 -17 -1 -28 2 -11 4 -64 5 -117 l1 -98 29 0 c26
0 33 8 73 88 26 50 46 79 46 67 1 -11 2 -50 3 -87 2 -67 2 -68 29 -68 26 0 33
9 85 118 31 64 58 120 60 125 2 4 -7 7 -21 7 -23 0 -31 -11 -63 -80 -20 -44
-39 -78 -41 -75 -3 3 -6 26 -7 52 -2 27 -3 60 -4 76 -1 23 -5 27 -29 27 -25 0
-32 -8 -67 -80 -21 -44 -41 -78 -43 -75 -3 2 -5 37 -6 77 -1 67 -3 73 -23 76
-11 2 -23 0 -26 -5z"/>
<path d="M2153 2948 c-14 -18 -133 -226 -133 -232 0 -4 11 -6 25 -6 17 0 29 8
37 25 11 25 16 27 78 28 29 1 35 -3 40 -24 4 -16 14 -25 31 -27 26 -3 26 -2
18 45 -10 63 -18 110 -26 153 -4 19 -6 38 -5 43 3 12 -55 8 -65 -5z m34 -132
c-6 -15 -58 -16 -56 -1 1 6 10 28 22 50 l21 40 9 -38 c5 -20 7 -43 4 -51z"/>
<path d="M2331 2907 c-6 -30 -14 -67 -17 -83 -3 -16 -9 -45 -14 -64 -14 -48
-13 -50 14 -50 22 0 26 7 36 58 24 112 22 112 59 22 31 -74 36 -81 59 -78 23
3 27 10 43 86 10 46 21 101 24 123 6 38 5 40 -17 37 -19 -3 -25 -13 -37 -75
-8 -40 -18 -73 -22 -73 -4 0 -20 33 -36 73 -24 60 -33 72 -54 75 -23 3 -27 -2
-38 -51z"/>
<path d="M2580 2945 c0 -26 4 -30 35 -30 17 0 29 -5 28 -11 -5 -29 -13 -64
-26 -126 l-15 -68 28 0 c27 0 28 2 45 93 10 50 22 97 27 102 5 6 21 11 36 11
42 3 42 3 42 24 0 19 -7 20 -100 20 -82 0 -100 -3 -100 -15z"/>
<path d="M2854 2950 c-51 -21 -94 -115 -78 -171 15 -52 62 -77 136 -70 9 0 31
13 48 28 68 57 76 167 15 207 -26 17 -87 20 -121 6z m82 -38 c58 -38 15 -162
-57 -162 -89 0 -59 166 31 169 8 0 20 -3 26 -7z"/>
<path d="M3065 2873 c-9 -49 -19 -96 -21 -106 -2 -10 -6 -27 -9 -38 -5 -16 -1
-19 24 -19 17 0 30 3 30 8 -1 4 2 26 6 50 6 34 12 42 29 42 31 0 42 -11 61
-58 15 -36 21 -42 46 -42 l29 0 -26 51 c-14 28 -24 52 -22 52 29 14 46 28 57
49 12 21 12 31 2 56 -15 35 -33 42 -122 42 l-66 0 -18 -87z m158 28 c19 -19
-18 -47 -67 -50 -42 -2 -43 -1 -38 26 3 15 10 31 16 36 14 10 75 2 89 -12z"/>
<path d="M3373 2940 c-38 -23 -62 -66 -67 -117 -12 -138 174 -162 229 -29 24
56 19 99 -14 135 -24 25 -37 31 -73 31 -25 0 -56 -8 -75 -20z m101 -33 c38
-28 13 -137 -35 -152 -44 -14 -89 20 -83 63 1 6 2 18 3 26 0 8 13 28 27 45 27
33 59 39 88 18z"/>
<path d="M3748 2944 c-33 -18 -68 -81 -68 -124 0 -48 25 -98 52 -105 46 -12
63 -12 91 -3 28 10 67 52 67 72 0 22 -43 15 -62 -10 -42 -53 -107 -11 -93 62
7 42 45 84 75 84 11 0 28 -9 37 -20 20 -23 63 -27 63 -6 0 7 -12 25 -26 40
-31 30 -91 35 -136 10z"/>
<path d="M4003 2940 c-91 -55 -90 -203 1 -229 98 -26 192 68 172 173 -13 70
-102 100 -173 56z m102 -34 c13 -9 19 -26 19 -49 0 -70 -49 -120 -101 -101
-49 17 -48 98 2 142 30 25 53 28 80 8z"/>
<path d="M4241 2938 c-5 -13 -11 -41 -15 -63 -3 -22 -12 -68 -20 -102 l-14
-63 24 0 c20 0 24 8 34 58 24 116 28 129 30 102 3 -36 8 -101 9 -132 1 -23 6
-28 26 -28 22 0 31 11 61 75 19 41 39 75 43 75 5 0 0 -30 -10 -67 -24 -84 -24
-83 4 -83 22 0 25 8 46 108 12 59 25 115 27 125 5 14 -1 17 -34 17 -39 0 -39
0 -78 -80 -21 -44 -41 -80 -44 -80 -4 0 -7 15 -7 33 -3 138 1 127 -38 127 -28
0 -37 -5 -44 -22z"/>
<path d="M4535 2938 c-15 -70 -45 -213 -45 -220 0 -4 11 -8 24 -8 19 0 26 7
32 33 4 17 8 35 8 39 2 14 17 20 61 23 77 6 112 43 103 106 -4 33 -42 49 -115
49 -57 0 -63 -2 -68 -22z m123 -27 c16 -1 16 -36 -1 -50 -8 -6 -29 -12 -48
-13 -31 -3 -34 -1 -31 22 4 44 10 51 39 46 16 -2 34 -5 41 -5z"/>
<path d="M4777 2953 c-2 -5 -8 -26 -12 -48 -5 -22 -10 -47 -11 -55 -15 -67
-13 -90 9 -114 46 -52 142 -34 171 32 9 20 19 55 22 77 3 22 8 43 10 46 2 3 6
20 9 37 5 29 3 32 -19 32 -25 0 -32 -11 -41 -62 -14 -72 -17 -85 -27 -111 -12
-30 -52 -46 -77 -30 -16 10 -18 34 -7 83 3 14 8 39 12 55 3 17 8 38 10 48 4
13 -1 17 -20 17 -14 0 -27 -3 -29 -7z"/>
<path d="M5013 2944 c-8 -20 13 -33 44 -28 28 5 28 6 3 -101 -25 -108 -25
-107 6 -103 25 3 28 9 45 90 23 114 22 113 47 114 12 1 28 2 36 3 7 0 16 10
19 21 5 19 0 20 -94 20 -82 0 -101 -3 -106 -16z"/>
<path d="M5246 2943 c-7 -24 -46 -214 -46 -225 0 -4 45 -8 100 -8 93 0 100 1
100 20 0 18 -7 20 -71 20 -69 0 -71 1 -65 23 3 12 6 28 6 35 0 8 21 12 70 12
63 0 70 2 70 20 0 18 -7 20 -66 20 -56 0 -65 2 -60 16 3 9 6 21 6 28 0 10 19
13 69 12 58 -1 71 2 74 16 3 9 2 19 -1 22 -3 3 -45 6 -93 6 -75 0 -88 -3 -93
-17z"/>
<path d="M5485 2949 c-2 -8 -6 -25 -9 -39 -2 -14 -9 -45 -15 -70 -5 -25 -12
-56 -14 -70 -3 -14 -7 -32 -9 -40 -2 -10 6 -16 23 -18 25 -3 27 1 35 45 8 43
12 48 37 51 25 3 30 -2 50 -47 18 -44 25 -51 49 -51 l28 0 -15 38 c-9 20 -20
41 -26 47 -13 13 -11 25 6 25 22 0 55 41 55 70 0 52 -21 64 -109 68 -62 3 -82
1 -86 -9z m133 -42 c29 -22 3 -49 -52 -54 -50 -5 -58 6 -36 48 12 21 63 24 88
6z"/>
<path d="M5881 2947 c-40 -20 -64 -62 -69 -121 -3 -40 0 -63 11 -80 15 -23 59
-44 85 -40 6 1 21 2 33 3 23 1 82 58 76 74 -6 20 -41 15 -63 -9 -47 -50 -99
-19 -91 55 8 73 79 119 109 71 14 -21 68 -29 68 -9 0 6 -13 24 -29 40 -33 32
-86 39 -130 16z"/>
<path d="M6096 2943 c-7 -23 -46 -212 -46 -224 0 -5 41 -9 90 -9 83 0 90 1 90
20 0 18 -7 20 -60 20 -35 0 -60 4 -60 11 0 5 7 42 15 82 9 40 18 82 21 95 4
18 0 22 -20 22 -15 0 -27 -7 -30 -17z"/>
<path d="M6297 2885 c-22 -99 -21 -131 3 -155 28 -28 97 -30 138 -4 28 18 38
44 62 152 l18 82 -27 0 c-26 0 -28 -4 -41 -67 -21 -108 -37 -143 -69 -143 -54
0 -58 13 -36 110 3 14 8 42 11 63 6 34 5 37 -18 37 -23 0 -26 -6 -41 -75z"/>
<path d="M6566 2943 c-7 -22 -35 -156 -42 -200 l-5 -33 83 0 c92 0 122 12 139
58 8 20 6 31 -10 52 -19 26 -19 27 0 38 26 16 25 67 -1 85 -12 8 -49 15 -89
16 -59 2 -70 -1 -75 -16z m132 -33 c1 0 2 -9 2 -19 0 -22 -19 -31 -66 -31 -38
0 -38 -1 -24 35 10 27 10 27 88 15z m-20 -99 c15 -1 16 -33 0 -49 -19 -19 -98
-16 -98 4 0 34 18 51 52 48 18 -1 39 -3 46 -3z"/>
</g>
</svg>
